<svg xmlns="http://www.w3.org/2000/svg" width="35" height="34" viewBox="0 0 35 34">
  <path fill="#FFF" fill-rule="evenodd" d="M155.5483,1815.128 L155.3523,1817.672 L152.7443,1817.672 L152.7443,1826.512 L149.4483,1826.512 L149.4483,1817.672 L147.6903,1817.672 L147.6903,1815.128 L149.4483,1815.128 L149.4483,1813.419 C149.4483,1812.666 149.4673,1811.503 150.0143,1810.784 C150.5913,1810.022 151.3823,1809.503 152.7443,1809.503 C154.9623,1809.503 155.8963,1809.82 155.8963,1809.82 L155.4573,1812.425 C155.4573,1812.425 154.7243,1812.213 154.0403,1812.213 C153.3563,1812.213 152.7443,1812.458 152.7443,1813.142 L152.7443,1815.128 L155.5483,1815.128 Z M151.7933,1801 C142.4003,1801 134.7853,1808.615 134.7853,1818.008 C134.7853,1827.401 142.4003,1835.016 151.7933,1835.016 C161.1863,1835.016 168.8013,1827.401 168.8013,1818.008 C168.8013,1808.615 161.1863,1801 151.7933,1801 L151.7933,1801 Z" transform="translate(-134 -1801)"/>
</svg>
