<svg xmlns="http://www.w3.org/2000/svg" width="141" height="207" viewBox="0 0 141 207">
  <g fill="none" transform="translate(-16.5 -22.5)">
    <path stroke="#FF3F85" d="M71,132 C93.09139,132 111,111.394725 111,90.1222001 C111,68.849675 77.9109985,12 66.7575718,12 C55.6041451,12 31,67.343625 31,90.1222001 C31,112.900775 48.90861,132 71,132 Z" transform="rotate(43 71 72)"/>
    <path stroke="#FFF" d="M126,229.868333 C140.635546,229.868333 152.5,216.068236 152.5,201.821258 C152.5,187.57428 130.578537,149.5 123.189391,149.5 C115.800246,149.5 99.5,186.565624 99.5,201.821258 C99.5,217.076893 111.364454,229.868333 126,229.868333 Z" transform="rotate(-20 126 189.684)"/>
  </g>
</svg>
