<svg xmlns="http://www.w3.org/2000/svg" width="222" height="414" viewBox="0 0 222 414">
  <g fill="none" fill-rule="evenodd" transform="translate(-8 -10)">
    <path stroke="#00EDB5" d="M207.5,88.368333 C222.135546,88.368333 234,74.5682364 234,60.3212583 C234,46.0742801 212.078537,8 204.689391,8 C197.300246,8 181,45.065624 181,60.3212583 C181,75.5768925 192.864454,88.368333 207.5,88.368333 Z" transform="rotate(28 207.5 48.184)"/>
    <g stroke="#FFF" transform="rotate(-12 726.162 73.87)">
      <polyline points="46.254 69.867 47.201 69.546 47.201 70.546"/>
      <line x1="47.051" x2="47.051" y1="72.088" y2="179.088" stroke-dasharray="2.013 2.013"/>
      <g transform="translate(.365 .447)">
        <path d="M46.8031514,179.815555 L46.8031514,180.892764 C46.8031514,180.892764 47.1569866,181.011257 47.8216376,181.224544"/>
        <path stroke-dasharray="2.016 2.016" d="M49.8899067,181.866884 C58.7680519,184.55452 85.2583726,191.780438 108.93737,190.250801 C137.903462,188.379689 168.737675,189.314707 174.343113,180.893087 L174.343113,70.292814"/>
        <polyline points="174.343 69.199 174.343 68.122 175.379 68.414"/>
        <line x1="177.452" x2="205.44" y1="68.999" y2="76.896" stroke-dasharray="2.003 2.003"/>
        <polyline points="206.477 77.189 207.513 77.481 207.933 76.49"/>
        <line x1="208.799" x2="223.944" y1="74.451" y2="38.781" stroke-dasharray="2.056 2.056"/>
        <polyline points="224.377 37.762 224.799 36.771 223.894 36.19"/>
        <path stroke-dasharray="1.989 1.989" d="M222.093876,35.0308104 L173.875491,4.0158107 C173.875491,4.0158107 145.846149,-0.194999034 140.706396,0.272509645 C135.567719,0.740018323 119.125674,8.69520632 114.264472,7.29160307 C109.405422,5.88799983 87.4482792,1.135354 84.1777232,0.235884541 C80.9071672,-0.663584921 50.5407914,2.61220745 46.803474,5.88799983 C43.0661567,9.162715 -0.381367695,32.0911072 0.552155032,37.2390887 C1.35446834,41.6577998 13.5236039,68.5018465 16.9479545,76.0035295"/>
        <path d="M17.3915929,76.9742025 C17.6798235,77.6022153 17.8389955,77.9490766 17.8389955,77.9490766 L18.8564063,77.6022153"/>
        <line x1="20.928" x2="44.748" y1="76.9" y2="68.819" stroke-dasharray="2.033 2.033"/>
      </g>
    </g>
    <path fill="#DB2676" fill-rule="nonzero" d="M160.5,423.368333 C175.135546,423.368333 187,409.568236 187,395.321258 C187,381.07428 165.078537,343 157.689391,343 C150.300246,343 134,380.065624 134,395.321258 C134,410.576893 145.864454,423.368333 160.5,423.368333 Z" transform="rotate(-5 160.5 383.184)"/>
  </g>
</svg>
