<svg xmlns="http://www.w3.org/2000/svg" width="137" height="603" viewBox="0 0 137 603">
  <g fill="none" fill-rule="evenodd" transform="translate(-36 -3)">
    <path fill="#FFE100" fill-rule="nonzero" d="M103.5,83.368333 C118.135546,83.368333 130,69.5682364 130,55.3212583 C130,41.0742801 108.078537,3 100.689391,3 C93.3002461,3 77,40.065624 77,55.3212583 C77,70.5768925 88.8644541,83.368333 103.5,83.368333 Z" transform="rotate(-5 103.5 43.184)"/>
    <g stroke="#FFF" stroke-dasharray="1.316 1.316" stroke-width=".658" transform="rotate(-11 661.155 62.219)">
      <path d="M203.5356,115.7988 C193.5056,111.0098 164.7726,101.4318 160.9416,101.4318 C157.1106,101.4318 173.3916,51.6288 154.2366,31.5148 C135.0816,11.4018 132.6606,1.8238 117.5886,0.8668 C117.1996,0.8418 116.8306,1.0528 116.4806,1.4628 C116.0226,0.6938 115.5296,0.2968 114.9976,0.328784764 C99.9266,1.2888 97.5046,10.8658 78.3496,30.9798 C59.1946,51.0918 75.4766,100.8968 71.6456,100.8968 C67.8136,100.8968 39.0806,110.4738 29.0506,115.2628 C19.0206,120.0518 -3.0604,186.1378 0.7706,194.7568 C4.6016,203.3778 0.7706,312.5628 0.7706,312.5628 C0.7706,312.5628 24.7146,308.7318 29.5036,303.9428 C34.2926,299.1548 29.5036,206.2508 29.5036,199.5468 C29.5036,192.8418 48.6586,167.1528 48.6586,167.1528 C48.6586,167.1528 56.3206,202.4198 57.2786,228.2798 C58.2366,254.1388 45.7856,322.1408 45.7856,322.1408 C73.6896,335.3898 114.9976,332.6758 114.9976,332.6758 L117.5886,333.2118 C117.5886,333.2118 158.8966,335.9258 186.8016,322.6758 C186.8016,322.6758 174.3496,254.6748 175.3076,228.8148 C176.2656,202.9558 183.9276,167.6888 183.9276,167.6888 C183.9276,167.6888 203.0826,193.3778 203.0826,200.0828 C203.0826,206.7868 198.2946,299.6898 203.0826,304.4788 C207.8716,309.2678 231.8156,313.0988 231.8156,313.0988 C231.8156,313.0988 227.9846,203.9138 231.8156,195.2938 C235.6466,186.6738 213.5656,120.5878 203.5356,115.7988 Z"/>
      <path d="M116.2934,28.061 C85.4174,28.465 81.3504,64.807 81.3504,78.939 C81.3504,93.072 102.3484,118.108 102.3484,118.108 L116.2934,162.525 L130.2384,118.108 C130.2384,118.108 151.2364,93.072 151.2364,78.939 C151.2364,64.807 147.1694,28.465 116.2934,28.061 Z"/>
    </g>
    <path stroke="#DB2676" d="M133,608 C154.539105,608 172,587.738146 172,566.820163 C172,545.90218 139.738224,490 128.863633,490 C117.989041,490 94,544.421231 94,566.820163 C94,589.219096 111.460895,608 133,608 Z" transform="rotate(28 133 549)"/>
  </g>
</svg>
