<svg xmlns="http://www.w3.org/2000/svg" xmlns:xlink="http://www.w3.org/1999/xlink" width="34" height="34" viewBox="0 0 34 34">
  <defs>
    <polygon id="instagram-a" points="0 0 34.016 0 34.016 34.015 0 34.015"/>
  </defs>
  <g fill="none" fill-rule="evenodd">
    <polygon fill="#FFF" points="22.496 13.369 22.496 10.861 22.496 10.486 22.12 10.488 19.612 10.495 19.622 13.378"/>
    <mask id="instagram-b" fill="#fff">
      <use xlink:href="#instagram-a"/>
    </mask>
    <path fill="#FFF" d="M25.514,15.262 L25.514,22.225 C25.514,24.037 24.039,25.512 22.227,25.512 L11.793,25.512 C9.981,25.512 8.506,24.037 8.506,22.225 L8.506,15.262 L8.506,11.79 C8.506,9.978 9.981,8.504 11.793,8.504 L22.227,8.504 C24.039,8.504 25.514,9.978 25.514,11.79 L25.514,15.262 Z M17.008,-2.91322522e-13 C7.614,-2.91322522e-13 -1.84741111e-13,7.615 -1.84741111e-13,17.007 C-1.84741111e-13,26.4 7.614,34.015 17.008,34.015 C26.402,34.015 34.016,26.4 34.016,17.007 C34.016,7.615 26.402,-2.91322522e-13 17.008,-2.91322522e-13 L17.008,-2.91322522e-13 Z" mask="url(#instagram-b)"/>
    <path fill="#FFF" d="M21.6605,17.0232 C21.6605,19.5872 19.5745,21.6742 17.0105,21.6742 C14.4455,21.6742 12.3595,19.5872 12.3595,17.0232 C12.3595,16.4062 12.4825,15.8172 12.7025,15.2772 L10.1635,15.2772 L10.1635,22.2402 C10.1635,23.1392 10.8935,23.8702 11.7935,23.8702 L22.2265,23.8702 C23.1265,23.8702 23.8565,23.1392 23.8565,22.2402 L23.8565,15.2772 L21.3175,15.2772 C21.5365,15.8172 21.6605,16.4062 21.6605,17.0232" mask="url(#instagram-b)"/>
    <path fill="#FFF" d="M17.0101,20.0164 C18.6601,20.0164 20.0041,18.6734 20.0041,17.0234 C20.0041,16.3714 19.7921,15.7694 19.4371,15.2774 C18.8931,14.5234 18.0091,14.0294 17.0101,14.0294 C16.0111,14.0294 15.1271,14.5234 14.5831,15.2774 C14.2291,15.7694 14.0171,16.3714 14.0171,17.0234 C14.0171,18.6734 15.3601,20.0164 17.0101,20.0164" mask="url(#instagram-b)"/>
  </g>
</svg>
