<svg xmlns="http://www.w3.org/2000/svg" xmlns:xlink="http://www.w3.org/1999/xlink" width="34" height="34" viewBox="0 0 34 34">
  <defs>
    <polygon id="twitter-a" points="0 .984 34.016 .984 34.016 35 0 35"/>
  </defs>
  <g fill="none" fill-rule="evenodd" transform="translate(0 -.984)">
    <mask id="twitter-b" fill="#fff">
      <use xlink:href="#twitter-a"/>
    </mask>
    <path fill="#FFF" d="M23.7974,15.3463 C23.8034,15.4953 23.8064,15.6463 23.8064,15.7983 C23.8064,20.4183 20.2924,25.7433 13.8614,25.7433 C11.8884,25.7433 10.0504,25.1643 8.5044,24.1733 C8.7764,24.2063 9.0554,24.2213 9.3384,24.2213 C10.9754,24.2213 12.4824,23.6633 13.6784,22.7253 C12.1494,22.6983 10.8584,21.6873 10.4144,20.2993 C10.6264,20.3403 10.8464,20.3613 11.0714,20.3613 C11.3904,20.3613 11.6994,20.3203 11.9924,20.2383 C10.3924,19.9173 9.1884,18.5053 9.1884,16.8103 L9.1884,16.7673 C9.6594,17.0283 10.1994,17.1863 10.7724,17.2043 C9.8344,16.5763 9.2164,15.5063 9.2164,14.2953 C9.2164,13.6543 9.3894,13.0543 9.6904,12.5363 C11.4154,14.6523 13.9894,16.0423 16.8944,16.1883 C16.8344,15.9333 16.8044,15.6673 16.8044,15.3923 C16.8044,13.4633 18.3694,11.8973 20.2984,11.8973 C21.3044,11.8973 22.2144,12.3223 22.8504,13.0013 C23.6474,12.8453 24.3944,12.5543 25.0704,12.1543 C24.8104,12.9703 24.2554,13.6543 23.5334,14.0873 C24.2404,14.0023 24.9144,13.8143 25.5414,13.5363 C25.0734,14.2373 24.4804,14.8533 23.7974,15.3463 M17.0084,0.9843 C7.6144,0.9843 0.0004,8.5993 0.0004,17.9923 C0.0004,27.3863 7.6144,35.0003 17.0084,35.0003 C26.4014,35.0003 34.0164,27.3863 34.0164,17.9923 C34.0164,8.5993 26.4014,0.9843 17.0084,0.9843" mask="url(#twitter-b)"/>
  </g>
</svg>
